<svg width="216" height="130" xmlns="http://www.w3.org/2000/svg" xmlns:xlink="http://www.w3.org/1999/xlink" xml:space="preserve" overflow="hidden"><g transform="translate(-82 -54)"><g><g><g><g><path d="M15.73 93.3719C15.73 92.5668 15.8669 91.8274 16.1462 91.1538 16.4201 90.4856 16.8034 89.905 17.2964 89.423 17.7893 88.9356 18.3589 88.5631 19.0052 88.2948 19.6515 88.0264 20.358 87.8949 21.1138 87.8949 22.1873 87.8949 23.1458 88.1469 23.9893 88.6453 24.8327 89.1437 25.4735 89.8667 25.9117 90.8087L24.6849 91.2523C24.4384 90.7704 24.1262 90.3815 23.7483 90.0857 23.3704 89.79 22.9541 89.5709 22.505 89.4285 22.0559 89.2861 21.6013 89.2149 21.1412 89.2149 20.4128 89.2149 19.761 89.3847 19.1695 89.7188 18.5835 90.0584 18.1234 90.5349 17.7893 91.1592 17.4552 91.7836 17.2909 92.5175 17.2909 93.3665 17.2909 94.2154 17.4552 94.9384 17.7893 95.5573 18.1234 96.1816 18.5835 96.6636 19.1695 97.0087 19.7555 97.3537 20.4128 97.5235 21.1412 97.5235 21.6123 97.5235 22.0778 97.4468 22.5379 97.2935 22.9979 97.1401 23.4251 96.8937 23.825 96.5486 24.2248 96.209 24.5534 95.7599 24.8053 95.2067L26.0322 95.6339C25.5721 96.7184 24.9149 97.5235 24.055 98.0493 23.1951 98.5751 22.2147 98.838 21.1084 98.838 20.3525 98.838 19.646 98.7065 18.9997 98.4382 18.348 98.1753 17.7784 97.7919 17.2909 97.3044 16.798 96.8115 16.4146 96.2309 16.1407 95.5627 15.8669 94.8945 15.7245 94.1606 15.7245 93.361Z" fill="#878786" fill-rule="nonzero" fill-opacity="1" transform="matrix(1 0 0 1.00085 83.022 55)"/><path d="M31.2682 98.8435C30.5343 98.8435 29.8825 98.6737 29.3129 98.3286 28.7433 97.9891 28.2997 97.5126 27.9765 96.9101 27.6534 96.3076 27.4946 95.6175 27.4946 94.8398 27.4946 94.062 27.6534 93.4267 27.9711 92.8462 28.2887 92.2656 28.7269 91.8055 29.2801 91.466 29.8332 91.1264 30.4686 90.9621 31.1751 90.9621 31.8816 90.9621 32.5224 91.1154 33.0756 91.4276 33.6288 91.7398 34.056 92.1725 34.3627 92.7311 34.6694 93.2898 34.8173 93.9306 34.8064 94.6536 34.8064 94.7741 34.8064 94.9 34.7899 95.0315 34.779 95.1574 34.7625 95.2999 34.7461 95.4532L29.0719 95.4532C29.1048 95.864 29.2198 96.22 29.417 96.5322 29.6142 96.8444 29.8716 97.0854 30.1838 97.2606 30.496 97.4359 30.852 97.5235 31.2518 97.5235 31.7611 97.5235 32.2103 97.4249 32.5882 97.2223 32.9661 97.0251 33.2345 96.7567 33.3878 96.4172L34.6475 96.8608C34.3408 97.4852 33.8917 97.9726 33.3057 98.3177 32.7196 98.6627 32.0405 98.838 31.2737 98.838ZM33.229 94.2154C33.229 93.8484 33.1359 93.5144 32.9551 93.2186 32.7689 92.9228 32.5224 92.6873 32.2103 92.523 31.8981 92.3532 31.5475 92.2711 31.1587 92.2711 30.8136 92.2711 30.4905 92.3532 30.2002 92.523 29.9099 92.6928 29.6634 92.9228 29.4663 93.2131 29.2691 93.5034 29.1431 93.8375 29.0884 94.2154L33.229 94.2154Z" fill="#878786" fill-rule="nonzero" fill-opacity="1" transform="matrix(1 0 0 1.00085 83.022 55)"/><path d="M36.5699 91.0716 37.8899 91.0716 37.983 91.9589C38.2295 91.6412 38.5417 91.3947 38.9196 91.225 39.2975 91.0497 39.7192 90.9621 40.1793 90.9621 40.7708 90.9621 41.2856 91.088 41.7183 91.34 42.151 91.5919 42.4906 91.9589 42.7316 92.4518 42.9726 92.9447 43.0931 93.5582 43.0931 94.2921L43.0931 98.7394 41.6526 98.7394 41.6526 94.4783C41.6526 93.7608 41.4992 93.2186 41.198 92.8462 40.8968 92.4737 40.4586 92.2875 39.889 92.2875 39.3194 92.2875 38.8374 92.4792 38.5088 92.8626 38.1802 93.246 38.0159 93.8101 38.0159 94.555L38.0159 98.7394 36.5754 98.7394 36.5754 91.0716Z" fill="#878786" fill-rule="nonzero" fill-opacity="1" transform="matrix(1 0 0 1.00085 83.022 55)"/><path d="M45.6672 91.0716 45.6672 88.9246 47.1241 88.9246 47.1241 91.0716 49.0411 91.0716 49.0411 92.3587 47.1241 92.3587 47.1241 96.1324C47.1241 96.6034 47.2172 96.9375 47.4089 97.1292 47.6006 97.3209 47.8361 97.4359 48.1319 97.4578 48.4222 97.4852 48.7289 97.4742 49.0466 97.4359L49.0466 98.6792C48.6248 98.7723 48.2141 98.7997 47.8142 98.7613 47.4089 98.7284 47.0475 98.608 46.7243 98.4163 46.4012 98.2246 46.1492 97.9398 45.9575 97.5673 45.7658 97.1949 45.6727 96.7184 45.6727 96.1324L45.6727 92.3587 44.5664 92.3587 44.5664 91.0716 45.6727 91.0716Z" fill="#878786" fill-rule="nonzero" fill-opacity="1" transform="matrix(1 0 0 1.00085 83.022 55)"/><path d="M50.6513 91.0716 51.9713 91.0716 52.0644 92.1013C52.278 91.8329 52.5245 91.6138 52.8093 91.4331 53.0886 91.2523 53.3953 91.1264 53.7294 91.0552 54.0635 90.984 54.4085 90.9894 54.7645 91.0716L54.7645 92.4354C54.425 92.3532 54.1018 92.3423 53.7842 92.4025 53.4665 92.4628 53.1817 92.5942 52.9352 92.7914 52.6833 92.9886 52.4806 93.2514 52.3273 93.5801 52.1739 93.9087 52.0973 94.303 52.0973 94.7631L52.0973 98.7339 50.6568 98.7339 50.6568 91.0661Z" fill="#878786" fill-rule="nonzero" fill-opacity="1" transform="matrix(1 0 0 1.00085 83.022 55)"/><path d="M60.8933 98.7394 60.7728 97.6221C60.5373 98.011 60.2306 98.3122 59.8582 98.5203 59.4857 98.7284 59.0038 98.8325 58.4068 98.8325 57.8536 98.8325 57.3826 98.7449 56.9937 98.5641 56.6048 98.3834 56.3091 98.1369 56.0955 97.8138 55.8873 97.4907 55.7833 97.1182 55.7833 96.6855 55.7833 96.0392 56.0243 95.508 56.5062 95.0808 56.9882 94.659 57.6838 94.3961 58.593 94.2921L60.7728 94.0456 60.7728 93.4486C60.7728 93.12 60.6414 92.8407 60.373 92.6106 60.1046 92.3806 59.7212 92.2656 59.2228 92.2656 58.7518 92.2656 58.352 92.3751 58.0288 92.5942 57.7057 92.8133 57.4811 93.1364 57.3716 93.5691L56.0845 93.109C56.2762 92.4354 56.6596 91.9096 57.2292 91.5317 57.7988 91.1538 58.4834 90.9621 59.294 90.9621 60.2525 90.9621 60.9864 91.2031 61.4848 91.685 61.9832 92.167 62.2352 92.7969 62.2352 93.5855L62.2352 98.7394 60.8988 98.7394ZM60.7728 95.2232 58.6697 95.4861C58.2205 95.5463 57.881 95.6723 57.6564 95.864 57.4319 96.0557 57.3168 96.3021 57.3168 96.6089 57.3168 96.8937 57.4264 97.1347 57.6455 97.3209 57.8645 97.5126 58.1767 97.6057 58.5711 97.6057 59.064 97.6057 59.4693 97.5126 59.7979 97.3318 60.1265 97.1511 60.3675 96.8882 60.5264 96.5596 60.6852 96.2255 60.7619 95.8421 60.7619 95.4039L60.7619 95.2341Z" fill="#878786" fill-rule="nonzero" fill-opacity="1" transform="matrix(1 0 0 1.00085 83.022 55)"/><path d="M64.3 87.6978 65.7405 87.6978 65.7405 98.7394 64.3 98.7394 64.3 87.6978Z" fill="#878786" fill-rule="nonzero" fill-opacity="1" transform="matrix(1 0 0 1.00085 83.022 55)"/><path d="M71.7378 93.3719C71.7378 92.5668 71.8747 91.8274 72.154 91.1538 72.4279 90.4856 72.8113 89.905 73.3042 89.423 73.7971 88.9356 74.3667 88.5631 75.013 88.2948 75.6593 88.0264 76.3658 87.8949 77.1217 87.8949 78.1952 87.8949 79.1536 88.1469 79.9971 88.6453 80.8406 89.1437 81.4814 89.8667 81.9195 90.8087L80.6927 91.2523C80.4462 90.7704 80.134 90.3815 79.7561 90.0857 79.3782 89.79 78.962 89.5709 78.5128 89.4285 78.0637 89.2861 77.6091 89.2149 77.1491 89.2149 76.4206 89.2149 75.7634 89.3847 75.1773 89.7188 74.5913 90.0584 74.1312 90.5349 73.7971 91.1592 73.463 91.7836 73.2987 92.5175 73.2987 93.3665 73.2987 94.2154 73.463 94.9384 73.7971 95.5573 74.1312 96.1762 74.5913 96.6636 75.1773 97.0087 75.7634 97.3537 76.4206 97.5235 77.1491 97.5235 77.6201 97.5235 78.0856 97.4468 78.5457 97.2935 79.0058 97.1401 79.433 96.8937 79.8328 96.5486 80.2326 96.209 80.5612 95.7599 80.8132 95.2067L82.04 95.6339C81.58 96.7184 80.9227 97.5235 80.0628 98.0493 79.2029 98.5751 78.2226 98.838 77.1162 98.838 76.3604 98.838 75.6538 98.7065 75.0076 98.4382 74.3558 98.1753 73.7862 97.7919 73.2987 97.3044 72.8058 96.8115 72.4224 96.2309 72.1486 95.5627 71.8747 94.8945 71.7323 94.1606 71.7323 93.361Z" fill="#878786" fill-rule="nonzero" fill-opacity="1" transform="matrix(1 0 0 1.00085 83.022 55)"/><path d="M87.3034 98.8435C86.575 98.8435 85.9232 98.6846 85.3481 98.3615 84.773 98.0384 84.3185 97.5838 83.9898 96.9977 83.6612 96.4117 83.4969 95.7161 83.4969 94.9219 83.4969 94.1278 83.6667 93.4158 84.0008 92.8188 84.3404 92.2272 84.8004 91.7672 85.381 91.444 85.9616 91.1209 86.6188 90.9621 87.3418 90.9621 88.0647 90.9621 88.722 91.1209 89.3135 91.444 89.905 91.7672 90.3651 92.2218 90.6992 92.8078 91.0333 93.3939 91.2031 94.0894 91.2031 94.8836 91.2031 95.6778 91.0333 96.3898 90.6882 96.9868 90.3432 97.5783 89.8776 98.0384 89.2861 98.3615 88.6946 98.6846 88.0264 98.8435 87.2925 98.8435ZM87.287 97.5235C87.6978 97.5235 88.0812 97.4304 88.4372 97.2387 88.7932 97.047 89.0889 96.7622 89.319 96.3733 89.549 95.9845 89.664 95.4915 89.664 94.8836 89.664 94.2757 89.5545 93.8046 89.3354 93.4212 89.1163 93.0378 88.826 92.753 88.47 92.5613 88.114 92.3697 87.7306 92.2765 87.3199 92.2765 86.9091 92.2765 86.5531 92.3697 86.208 92.5613 85.863 92.753 85.5891 93.0378 85.37 93.4267 85.1564 93.8156 85.0469 94.3085 85.0469 94.9165 85.0469 95.5244 85.151 95.9954 85.3591 96.3788 85.5672 96.7622 85.8411 97.047 86.1806 97.2387 86.5202 97.4304 86.8872 97.5235 87.287 97.5235Z" fill="#878786" fill-rule="nonzero" fill-opacity="1" transform="matrix(1 0 0 1.00085 83.022 55)"/><path d="M92.9776 91.0716 94.2976 91.0716 94.3907 92.1013C94.6043 91.8329 94.8507 91.6138 95.1355 91.4331 95.4149 91.2523 95.7216 91.1264 96.0557 91.0552 96.3898 90.984 96.7348 90.9894 97.0908 91.0716L97.0908 92.4354C96.7513 92.3532 96.4281 92.3423 96.1104 92.4025 95.7928 92.4628 95.508 92.5942 95.2615 92.7914 95.0096 92.9886 94.8069 93.2514 94.6536 93.5801 94.5002 93.9087 94.4235 94.303 94.4235 94.7631L94.4235 98.7339 92.9831 98.7339 92.9831 91.0661Z" fill="#878786" fill-rule="nonzero" fill-opacity="1" transform="matrix(1 0 0 1.00085 83.022 55)"/><path d="M101.719 98.8435C100.985 98.8435 100.333 98.6737 99.7636 98.3286 99.194 97.9891 98.7504 97.5126 98.4272 96.9101 98.1041 96.3076 97.9452 95.6175 97.9452 94.8398 97.9452 94.062 98.1041 93.4267 98.4217 92.8462 98.7394 92.2656 99.1776 91.8055 99.7307 91.466 100.284 91.1264 100.919 90.9621 101.626 90.9621 102.332 90.9621 102.973 91.1154 103.526 91.4276 104.079 91.7398 104.507 92.1725 104.813 92.7311 105.12 93.2898 105.268 93.9306 105.257 94.6536 105.257 94.7741 105.257 94.9 105.241 95.0315 105.23 95.1574 105.213 95.2999 105.197 95.4532L99.5226 95.4532C99.5555 95.864 99.6705 96.22 99.8677 96.5322 100.065 96.8444 100.322 97.0854 100.634 97.2606 100.947 97.4359 101.303 97.5235 101.702 97.5235 102.212 97.5235 102.661 97.4249 103.039 97.2223 103.417 97.0251 103.685 96.7567 103.838 96.4172L105.098 96.8608C104.791 97.4852 104.342 97.9726 103.756 98.3177 103.17 98.6627 102.491 98.838 101.724 98.838ZM103.68 94.2154C103.68 93.8484 103.587 93.5144 103.406 93.2186 103.22 92.9228 102.973 92.6873 102.661 92.523 102.349 92.3587 101.998 92.2711 101.609 92.2711 101.264 92.2711 100.941 92.3532 100.651 92.523 100.361 92.6928 100.114 92.9228 99.917 93.2131 99.7198 93.5034 99.5938 93.8375 99.5391 94.2154L103.68 94.2154Z" fill="#878786" fill-rule="nonzero" fill-opacity="1" transform="matrix(1 0 0 1.00085 83.022 55)"/><path d="M111.424 88.0045 118.599 88.0045 118.599 89.2916 112.958 89.2916 112.958 92.649 117.191 92.649 117.191 93.9361 112.958 93.9361 112.958 98.7339 111.424 98.7339 111.424 87.999Z" fill="#878786" fill-rule="nonzero" fill-opacity="1" transform="matrix(1 0 0 1.00085 83.022 55)"/><path d="M123.736 98.7394 123.616 97.6221C123.38 98.011 123.079 98.3122 122.701 98.5203 122.323 98.7284 121.847 98.8325 121.25 98.8325 120.697 98.8325 120.226 98.7449 119.837 98.5641 119.448 98.3834 119.147 98.1369 118.939 97.8138 118.73 97.4907 118.626 97.1182 118.626 96.6855 118.626 96.0392 118.867 95.508 119.349 95.0808 119.831 94.659 120.527 94.3961 121.436 94.2921L123.616 94.0456 123.616 93.4486C123.616 93.12 123.485 92.8407 123.216 92.6106 122.948 92.3806 122.564 92.2656 122.066 92.2656 121.595 92.2656 121.195 92.3751 120.872 92.5942 120.543 92.8133 120.324 93.1364 120.215 93.5691L118.928 93.109C119.119 92.4354 119.503 91.9096 120.072 91.5317 120.642 91.1538 121.327 90.9621 122.137 90.9621 123.096 90.9621 123.83 91.2031 124.328 91.685 124.826 92.167 125.078 92.7969 125.078 93.5855L125.078 98.7394 123.742 98.7394ZM123.616 95.2232 121.513 95.4861C121.064 95.5463 120.724 95.6723 120.5 95.864 120.275 96.0557 120.16 96.3021 120.16 96.6089 120.16 96.8937 120.27 97.1347 120.489 97.3209 120.708 97.5126 121.02 97.6057 121.414 97.6057 121.907 97.6057 122.312 97.5126 122.641 97.3318 122.97 97.1456 123.211 96.8882 123.369 96.5596 123.528 96.2255 123.605 95.8421 123.605 95.4039L123.605 95.2341Z" fill="#878786" fill-rule="nonzero" fill-opacity="1" transform="matrix(1 0 0 1.00085 83.022 55)"/><path d="M130.424 98.8435C129.69 98.8435 129.038 98.6792 128.474 98.3451 127.91 98.011 127.472 97.5564 127.165 96.9703 126.853 96.3898 126.7 95.7052 126.7 94.9329 126.7 94.1606 126.858 93.4541 127.176 92.8626 127.494 92.2711 127.932 91.8055 128.496 91.466 129.06 91.1264 129.712 90.9621 130.457 90.9621 131.245 90.9621 131.936 91.1483 132.533 91.5152 133.13 91.8822 133.562 92.3806 133.831 93.005L132.527 93.465C132.374 93.109 132.116 92.8188 131.755 92.6052 131.393 92.3916 130.983 92.282 130.522 92.282 130.062 92.282 129.646 92.3916 129.312 92.6106 128.972 92.8297 128.715 93.1364 128.529 93.5308 128.343 93.9251 128.255 94.3852 128.255 94.9165 128.255 95.7161 128.458 96.346 128.868 96.817 129.279 97.288 129.827 97.5235 130.522 97.5235 130.983 97.5235 131.393 97.4194 131.755 97.2168 132.116 97.0142 132.39 96.7293 132.576 96.3733L133.863 96.8334C133.579 97.4468 133.13 97.9343 132.516 98.2958 131.903 98.6573 131.207 98.838 130.429 98.838Z" fill="#878786" fill-rule="nonzero" fill-opacity="1" transform="matrix(1 0 0 1.00085 83.022 55)"/><path d="M136.591 89.7188C136.317 89.7188 136.087 89.6257 135.901 89.4449 135.715 89.2587 135.627 89.0342 135.627 88.7713 135.627 88.5084 135.72 88.2619 135.901 88.0757 136.087 87.884 136.317 87.7909 136.591 87.7909 136.865 87.7909 137.084 87.884 137.276 88.0757 137.467 88.2674 137.56 88.4974 137.56 88.7713 137.56 89.0451 137.467 89.2642 137.276 89.4449 137.084 89.6311 136.859 89.7188 136.591 89.7188ZM135.852 91.0716 137.308 91.0716 137.308 98.7394 135.852 98.7394 135.852 91.0716Z" fill="#878786" fill-rule="nonzero" fill-opacity="1" transform="matrix(1 0 0 1.00085 83.022 55)"/><path d="M139.735 87.6978 141.175 87.6978 141.175 98.7394 139.735 98.7394 139.735 87.6978Z" fill="#878786" fill-rule="nonzero" fill-opacity="1" transform="matrix(1 0 0 1.00085 83.022 55)"/><path d="M144.335 89.7188C144.062 89.7188 143.832 89.6257 143.645 89.4449 143.459 89.2587 143.371 89.0342 143.371 88.7713 143.371 88.5084 143.465 88.2619 143.645 88.0757 143.832 87.884 144.062 87.7909 144.335 87.7909 144.609 87.7909 144.828 87.884 145.02 88.0757 145.206 88.2674 145.305 88.4974 145.305 88.7713 145.305 89.0451 145.212 89.2642 145.02 89.4449 144.828 89.6311 144.604 89.7188 144.335 89.7188ZM143.596 91.0716 145.053 91.0716 145.053 98.7394 143.596 98.7394 143.596 91.0716Z" fill="#878786" fill-rule="nonzero" fill-opacity="1" transform="matrix(1 0 0 1.00085 83.022 55)"/><path d="M147.967 91.0716 147.967 88.9246 149.424 88.9246 149.424 91.0716 151.341 91.0716 151.341 92.3587 149.424 92.3587 149.424 96.1324C149.424 96.6034 149.517 96.9375 149.708 97.1292 149.9 97.3209 150.136 97.4359 150.431 97.4578 150.722 97.4852 151.028 97.4742 151.346 97.4359L151.346 98.6792C150.924 98.7723 150.514 98.7997 150.114 98.7613 149.708 98.7284 149.347 98.608 149.024 98.4163 148.701 98.2246 148.449 97.9398 148.257 97.5673 148.065 97.1949 147.972 96.7184 147.972 96.1324L147.972 92.3587 146.866 92.3587 146.866 91.0716 147.972 91.0716Z" fill="#878786" fill-rule="nonzero" fill-opacity="1" transform="matrix(1 0 0 1.00085 83.022 55)"/><path d="M153.92 89.7188C153.646 89.7188 153.416 89.6257 153.23 89.4449 153.044 89.2587 152.956 89.0342 152.956 88.7713 152.956 88.5084 153.049 88.2619 153.23 88.0757 153.416 87.884 153.646 87.7909 153.92 87.7909 154.194 87.7909 154.413 87.884 154.605 88.0757 154.791 88.2674 154.89 88.4974 154.89 88.7713 154.89 89.0451 154.797 89.2642 154.605 89.4449 154.413 89.6311 154.189 89.7188 153.92 89.7188ZM153.181 91.0716 154.638 91.0716 154.638 98.7394 153.181 98.7394 153.181 91.0716Z" fill="#878786" fill-rule="nonzero" fill-opacity="1" transform="matrix(1 0 0 1.00085 83.022 55)"/><path d="M160.389 98.8435C159.655 98.8435 159.003 98.6737 158.433 98.3286 157.864 97.9891 157.42 97.5126 157.097 96.9101 156.774 96.3076 156.615 95.6175 156.615 94.8398 156.615 94.062 156.774 93.4267 157.091 92.8462 157.409 92.2656 157.847 91.8055 158.4 91.466 158.954 91.1264 159.589 90.9621 160.295 90.9621 161.002 90.9621 161.643 91.1154 162.196 91.4276 162.749 91.7398 163.176 92.1725 163.483 92.7311 163.79 93.2898 163.938 93.9306 163.927 94.6536 163.927 94.7741 163.927 94.9 163.91 95.0315 163.899 95.1574 163.883 95.2999 163.866 95.4532L158.192 95.4532C158.225 95.864 158.34 96.22 158.537 96.5322 158.734 96.8444 158.992 97.0854 159.304 97.2606 159.616 97.4359 159.972 97.5235 160.372 97.5235 160.881 97.5235 161.331 97.4249 161.709 97.2223 162.086 97.0251 162.355 96.7567 162.508 96.4172L163.768 96.8608C163.461 97.4852 163.012 97.9726 162.426 98.3177 161.84 98.6627 161.161 98.838 160.394 98.838ZM162.355 94.2154C162.355 93.8484 162.262 93.5144 162.081 93.2186 161.895 92.9228 161.648 92.6873 161.336 92.523 161.024 92.3532 160.673 92.2711 160.284 92.2711 159.934 92.2711 159.616 92.3532 159.326 92.523 159.036 92.6928 158.789 92.9228 158.592 93.2131 158.395 93.5034 158.269 93.8375 158.214 94.2154L162.355 94.2154Z" fill="#878786" fill-rule="nonzero" fill-opacity="1" transform="matrix(1 0 0 1.00085 83.022 55)"/><path d="M166.556 96.3131C166.627 96.6198 166.747 96.8608 166.923 97.0361 167.098 97.2113 167.306 97.3373 167.542 97.414 167.783 97.4907 168.034 97.529 168.303 97.529 168.763 97.529 169.119 97.4359 169.376 97.2551 169.634 97.0689 169.76 96.8389 169.76 96.565 169.76 96.3295 169.683 96.1433 169.524 96.0064 169.365 95.8695 169.157 95.7599 168.894 95.6778 168.631 95.5956 168.358 95.5189 168.056 95.4477 167.788 95.3765 167.503 95.2944 167.191 95.2013 166.879 95.1082 166.589 94.9822 166.315 94.8234 166.041 94.6645 165.822 94.4619 165.646 94.2099 165.471 93.958 165.384 93.6403 165.384 93.2514 165.384 92.7914 165.51 92.3916 165.761 92.0465 166.013 91.7069 166.358 91.4386 166.802 91.2469 167.246 91.0606 167.75 90.9621 168.314 90.9621 168.966 90.9621 169.546 91.1045 170.039 91.3838 170.532 91.6631 170.893 92.0849 171.118 92.649L169.814 93.0762C169.743 92.8845 169.623 92.7257 169.464 92.5997 169.3 92.4792 169.113 92.3916 168.905 92.3477 168.697 92.3039 168.489 92.2765 168.286 92.2765 167.898 92.2765 167.574 92.3532 167.322 92.5066 167.065 92.6599 166.939 92.8845 166.939 93.1803 166.939 93.3446 166.977 93.4815 167.06 93.5855 167.142 93.6896 167.257 93.7772 167.405 93.8484 167.552 93.9142 167.728 93.9744 167.936 94.0237 168.139 94.073 168.358 94.1332 168.593 94.1935 168.9 94.2866 169.212 94.3852 169.53 94.4947 169.847 94.6043 170.138 94.7357 170.406 94.9 170.674 95.0643 170.888 95.2779 171.052 95.5463 171.217 95.8147 171.304 96.1378 171.315 96.5267 171.315 96.9758 171.189 97.3756 170.937 97.7207 170.685 98.0657 170.335 98.3396 169.88 98.5422 169.426 98.7394 168.883 98.8435 168.264 98.8435 167.509 98.8435 166.862 98.6737 166.331 98.3396 165.8 98.0055 165.444 97.4797 165.258 96.7732L166.561 96.3131Z" fill="#878786" fill-rule="nonzero" fill-opacity="1" transform="matrix(1 0 0 1.00085 83.022 55)"/><path d="M22.0011 110.778 21.8313 110.822 21.8313 106.101 23.2882 106.101 23.2882 117.142 21.9683 117.142 21.8587 115.992C21.6013 116.337 21.2562 116.638 20.8236 116.879 20.3909 117.126 19.8596 117.246 19.2352 117.246 18.5397 117.246 17.9317 117.082 17.4169 116.753 16.902 116.425 16.4967 115.965 16.2065 115.373 15.9162 114.782 15.7683 114.091 15.7683 113.303 15.7683 112.514 15.9162 111.824 16.2065 111.232 16.4967 110.641 16.902 110.181 17.4169 109.852 17.9317 109.524 18.5397 109.359 19.2352 109.359 19.9308 109.359 20.4621 109.496 20.9276 109.765 21.3932 110.038 21.7492 110.373 21.9956 110.767ZM17.3238 113.308C17.3238 114.097 17.5264 114.727 17.9372 115.209 18.348 115.691 18.8957 115.932 19.5803 115.932 19.9965 115.932 20.3799 115.828 20.714 115.625 21.0536 115.422 21.322 115.121 21.5246 114.727 21.7273 114.332 21.8313 113.861 21.8313 113.308 21.8313 112.755 21.7273 112.284 21.5246 111.895 21.322 111.506 21.0481 111.211 20.714 110.997 20.3745 110.789 19.9965 110.685 19.5803 110.685 18.9066 110.685 18.3589 110.926 17.9481 111.408 17.5319 111.89 17.3292 112.525 17.3292 113.308Z" fill="#878786" fill-rule="nonzero" fill-opacity="1" transform="matrix(1 0 0 1.00085 83.022 55)"/><path d="M28.8145 117.246C28.0806 117.246 27.4288 117.076 26.8592 116.731 26.2896 116.392 25.846 115.915 25.5228 115.313 25.1997 114.71 25.0409 114.02 25.0409 113.243 25.0409 112.465 25.1997 111.829 25.5174 111.249 25.835 110.668 26.2732 110.208 26.8264 109.869 27.3795 109.529 28.0149 109.365 28.7214 109.365 29.4279 109.365 30.0687 109.518 30.6219 109.83 31.1751 110.143 31.6023 110.575 31.909 111.134 32.2157 111.693 32.3636 112.333 32.3527 113.056 32.3527 113.177 32.3527 113.303 32.3362 113.434 32.3253 113.56 32.3088 113.703 32.2924 113.856L26.6182 113.856C26.6511 114.267 26.7661 114.623 26.9633 114.935 27.1605 115.247 27.4179 115.488 27.7301 115.663 28.0423 115.839 28.3983 115.926 28.7981 115.926 29.3074 115.926 29.7566 115.828 30.1345 115.625 30.5124 115.428 30.7808 115.159 30.9341 114.82L32.1938 115.264C31.8871 115.888 31.438 116.375 30.852 116.72 30.2659 117.065 29.5868 117.241 28.82 117.241ZM30.7753 112.618C30.7753 112.251 30.6822 111.917 30.5014 111.621 30.3152 111.326 30.0687 111.09 29.7566 110.926 29.4444 110.761 29.0938 110.674 28.705 110.674 28.3599 110.674 28.0368 110.756 27.7465 110.926 27.4562 111.096 27.2098 111.326 27.0126 111.616 26.8154 111.906 26.6894 112.24 26.6347 112.618L30.7753 112.618Z" fill="#878786" fill-rule="nonzero" fill-opacity="1" transform="matrix(1 0 0 1.00085 83.022 55)"/><path d="M34.1163 109.474 35.4362 109.474 35.5293 110.504C35.7429 110.236 35.9894 110.017 36.2742 109.836 36.5535 109.655 36.8602 109.529 37.1943 109.458 37.5284 109.387 37.8735 109.392 38.2295 109.474L38.2295 110.838C37.8899 110.756 37.5668 110.745 37.2491 110.805 36.9314 110.865 36.6466 110.997 36.4002 111.194 36.1482 111.391 35.9456 111.654 35.7922 111.983 35.6389 112.311 35.5622 112.706 35.5622 113.166L35.5622 117.137 34.1217 117.137 34.1217 109.469Z" fill="#878786" fill-rule="nonzero" fill-opacity="1" transform="matrix(1 0 0 1.00085 83.022 55)"/><path d="M45.618 117.142 44.0844 117.142 44.0844 106.407 45.7713 106.407 49.5888 115.105 53.3898 106.407 55.0603 106.407 55.0603 117.142 53.5432 117.142 53.5432 109.381 50.1365 117.142 49.0192 117.142 45.6125 109.381 45.6125 117.142Z" fill="#878786" fill-rule="nonzero" fill-opacity="1" transform="matrix(1 0 0 1.00085 83.022 55)"/><path d="M60.7126 117.246C59.9787 117.246 59.3269 117.076 58.7573 116.731 58.1877 116.392 57.744 115.915 57.4209 115.313 57.0978 114.71 56.9389 114.02 56.9389 113.243 56.9389 112.465 57.0978 111.829 57.4154 111.249 57.7331 110.668 58.1712 110.208 58.7244 109.869 59.2776 109.529 59.9129 109.365 60.6195 109.365 61.326 109.365 61.9668 109.518 62.52 109.83 63.0732 110.143 63.5004 110.575 63.8071 111.134 64.1138 111.693 64.2617 112.333 64.2507 113.056 64.2507 113.177 64.2507 113.303 64.2343 113.434 64.2233 113.56 64.2069 113.703 64.1905 113.856L58.5163 113.856C58.5492 114.267 58.6642 114.623 58.8614 114.935 59.0585 115.247 59.3159 115.488 59.6281 115.663 59.9403 115.839 60.2963 115.926 60.6961 115.926 61.2055 115.926 61.6546 115.828 62.0325 115.625 62.4104 115.428 62.6788 115.159 62.8322 114.82L64.0919 115.264C63.7852 115.888 63.3361 116.375 62.75 116.72 62.164 117.065 61.4848 117.241 60.7181 117.241ZM62.6733 112.618C62.6733 112.251 62.5802 111.917 62.3995 111.621 62.2133 111.326 61.9668 111.09 61.6546 110.926 61.3424 110.761 60.9919 110.674 60.603 110.674 60.258 110.674 59.9348 110.756 59.6446 110.926 59.3543 111.096 59.1078 111.326 58.9106 111.616 58.7135 111.906 58.5875 112.24 58.5327 112.618L62.6733 112.618Z" fill="#878786" fill-rule="nonzero" fill-opacity="1" transform="matrix(1 0 0 1.00085 83.022 55)"/><path d="M71.798 110.778 71.6282 110.822 71.6282 106.101 73.0851 106.101 73.0851 117.142 71.7652 117.142 71.6556 115.992C71.3982 116.337 71.0532 116.638 70.6205 116.879 70.1878 117.126 69.6565 117.246 69.0321 117.246 68.3366 117.246 67.7286 117.082 67.2138 116.753 66.6989 116.425 66.2936 115.965 66.0034 115.373 65.7131 114.782 65.5652 114.091 65.5652 113.303 65.5652 112.514 65.7131 111.824 66.0034 111.232 66.2936 110.641 66.6989 110.181 67.2138 109.852 67.7286 109.524 68.3366 109.359 69.0321 109.359 69.7277 109.359 70.259 109.496 70.7245 109.765 71.1901 110.038 71.5461 110.373 71.7926 110.767ZM67.1207 113.308C67.1207 114.097 67.3233 114.727 67.7341 115.209 68.1449 115.691 68.6926 115.932 69.3772 115.932 69.7989 115.932 70.1768 115.828 70.5109 115.625 70.8505 115.422 71.1189 115.121 71.3215 114.727 71.5242 114.332 71.6282 113.861 71.6282 113.308 71.6282 112.755 71.5242 112.284 71.3215 111.895 71.1189 111.506 70.845 111.211 70.5109 110.997 70.1714 110.789 69.7934 110.685 69.3772 110.685 68.7035 110.685 68.1558 110.926 67.745 111.408 67.3288 111.89 67.1261 112.525 67.1261 113.308Z" fill="#878786" fill-rule="nonzero" fill-opacity="1" transform="matrix(1 0 0 1.00085 83.022 55)"/><path d="M76.2454 108.122C75.9715 108.122 75.7415 108.028 75.5553 107.848 75.369 107.661 75.2814 107.437 75.2814 107.174 75.2814 106.911 75.3745 106.665 75.5553 106.478 75.7415 106.287 75.9715 106.194 76.2454 106.194 76.5192 106.194 76.7383 106.287 76.93 106.478 77.1162 106.67 77.2148 106.9 77.2148 107.174 77.2148 107.448 77.1217 107.667 76.93 107.848 76.7383 108.034 76.5137 108.122 76.2454 108.122ZM75.5114 109.474 76.9683 109.474 76.9683 117.142 75.5114 117.142 75.5114 109.474Z" fill="#878786" fill-rule="nonzero" fill-opacity="1" transform="matrix(1 0 0 1.00085 83.022 55)"/><path d="M84.8771 110.652 80.8132 115.85 84.8935 115.85 84.8935 117.137 79.0058 117.137 79.0058 115.954 83.0861 110.756 79.0222 110.756 79.0222 109.469 84.8826 109.469 84.8826 110.652Z" fill="#878786" fill-rule="nonzero" fill-opacity="1" transform="matrix(1 0 0 1.00085 83.022 55)"/><path d="M87.6868 108.122C87.413 108.122 87.1829 108.028 86.9967 107.848 86.8105 107.661 86.7229 107.437 86.7229 107.174 86.7229 106.911 86.816 106.665 86.9967 106.478 87.1829 106.287 87.413 106.194 87.6868 106.194 87.9607 106.194 88.1797 106.287 88.3714 106.478 88.5577 106.67 88.6562 106.9 88.6562 107.174 88.6562 107.448 88.5631 107.667 88.3714 107.848 88.1797 108.034 87.9552 108.122 87.6868 108.122ZM86.9474 109.474 88.4043 109.474 88.4043 117.142 86.9474 117.142 86.9474 109.474Z" fill="#878786" fill-rule="nonzero" fill-opacity="1" transform="matrix(1 0 0 1.00085 83.022 55)"/><path d="M90.8306 109.474 92.1506 109.474 92.2437 110.362C92.4901 110.044 92.8023 109.797 93.1803 109.628 93.5582 109.452 93.9799 109.365 94.44 109.365 95.0315 109.365 95.5463 109.491 95.979 109.743 96.4117 109.995 96.7513 110.362 96.9922 110.855 97.2332 111.347 97.3537 111.961 97.3537 112.695L97.3537 117.142 95.9133 117.142 95.9133 112.881C95.9133 112.164 95.7599 111.621 95.4587 111.249 95.1574 110.876 94.7193 110.69 94.1497 110.69 93.5801 110.69 93.0981 110.882 92.7695 111.265 92.4409 111.649 92.2765 112.213 92.2765 112.958L92.2765 117.142 90.8361 117.142 90.8361 109.474Z" fill="#878786" fill-rule="nonzero" fill-opacity="1" transform="matrix(1 0 0 1.00085 83.022 55)"/><path d="M100.399 108.122C100.125 108.122 99.8951 108.028 99.7088 107.848 99.5226 107.661 99.435 107.437 99.435 107.174 99.435 106.911 99.5281 106.665 99.7088 106.478 99.8951 106.287 100.125 106.194 100.399 106.194 100.673 106.194 100.892 106.287 101.084 106.478 101.275 106.67 101.368 106.9 101.368 107.174 101.368 107.448 101.275 107.667 101.084 107.848 100.892 108.034 100.667 108.122 100.399 108.122ZM99.6595 109.474 101.116 109.474 101.116 117.142 99.6595 117.142 99.6595 109.474Z" fill="#878786" fill-rule="nonzero" fill-opacity="1" transform="matrix(1 0 0 1.00085 83.022 55)"/><path d="M104.403 114.716C104.474 115.023 104.594 115.264 104.77 115.439 104.945 115.614 105.153 115.74 105.388 115.817 105.629 115.893 105.881 115.932 106.15 115.932 106.61 115.932 106.966 115.839 107.223 115.658 107.481 115.477 107.607 115.242 107.607 114.968 107.607 114.732 107.53 114.546 107.371 114.409 107.212 114.272 107.004 114.163 106.741 114.08 106.478 113.998 106.205 113.922 105.903 113.85 105.635 113.779 105.35 113.697 105.038 113.604 104.726 113.511 104.435 113.385 104.162 113.226 103.893 113.067 103.669 112.865 103.493 112.613 103.318 112.361 103.231 112.043 103.231 111.654 103.231 111.194 103.357 110.794 103.608 110.449 103.86 110.11 104.205 109.841 104.649 109.65 105.093 109.463 105.597 109.365 106.161 109.365 106.813 109.365 107.388 109.507 107.886 109.787 108.384 110.066 108.74 110.488 108.965 111.052L107.661 111.479C107.59 111.287 107.47 111.128 107.311 111.002 107.147 110.882 106.96 110.794 106.752 110.75 106.544 110.707 106.336 110.679 106.133 110.679 105.744 110.679 105.421 110.756 105.169 110.909 104.912 111.063 104.786 111.287 104.786 111.583 104.786 111.747 104.824 111.884 104.907 111.988 104.989 112.092 105.104 112.18 105.252 112.251 105.399 112.317 105.575 112.377 105.783 112.426 105.985 112.476 106.205 112.536 106.44 112.596 106.747 112.689 107.059 112.788 107.377 112.897 107.694 113.007 107.985 113.138 108.253 113.303 108.521 113.467 108.735 113.681 108.899 113.949 109.064 114.217 109.151 114.541 109.162 114.929 109.162 115.379 109.036 115.778 108.784 116.123 108.532 116.468 108.182 116.742 107.727 116.945 107.273 117.142 106.73 117.246 106.111 117.246 105.356 117.246 104.709 117.076 104.178 116.742 103.647 116.403 103.291 115.882 103.105 115.176L104.408 114.716Z" fill="#878786" fill-rule="nonzero" fill-opacity="1" transform="matrix(1 0 0 1.00085 83.022 55)"/><path d="M114.185 117.246C113.451 117.246 112.799 117.082 112.235 116.748 111.671 116.414 111.232 115.959 110.926 115.373 110.614 114.793 110.46 114.108 110.46 113.336 110.46 112.563 110.619 111.857 110.937 111.265 111.254 110.674 111.693 110.208 112.257 109.869 112.821 109.529 113.473 109.365 114.217 109.365 115.006 109.365 115.696 109.551 116.293 109.918 116.89 110.285 117.323 110.783 117.591 111.408L116.288 111.868C116.134 111.512 115.877 111.222 115.515 111.008 115.154 110.794 114.743 110.685 114.283 110.685 113.823 110.685 113.407 110.794 113.073 111.013 112.733 111.232 112.476 111.539 112.29 111.934 112.103 112.328 112.016 112.788 112.016 113.319 112.016 114.119 112.218 114.749 112.629 115.22 113.04 115.691 113.588 115.926 114.283 115.926 114.743 115.926 115.154 115.822 115.515 115.62 115.877 115.417 116.151 115.132 116.337 114.776L117.624 115.236C117.339 115.85 116.89 116.337 116.277 116.699 115.663 117.06 114.968 117.241 114.19 117.241Z" fill="#878786" fill-rule="nonzero" fill-opacity="1" transform="matrix(1 0 0 1.00085 83.022 55)"/><path d="M119.382 106.101 120.823 106.101 120.823 110.318C121.069 110.022 121.387 109.787 121.776 109.622 122.165 109.452 122.592 109.37 123.063 109.37 123.632 109.37 124.136 109.496 124.574 109.748 125.007 110 125.347 110.373 125.593 110.865 125.84 111.358 125.96 111.977 125.96 112.711L125.96 117.142 124.443 117.142 124.443 112.892C124.443 112.174 124.295 111.627 123.999 111.249 123.704 110.871 123.271 110.679 122.696 110.679 122.121 110.679 121.644 110.871 121.316 111.26 120.987 111.649 120.823 112.218 120.823 112.963L120.823 117.137 119.382 117.137 119.382 106.095Z" fill="#878786" fill-rule="nonzero" fill-opacity="1" transform="matrix(1 0 0 1.00085 83.022 55)"/><path d="M131.377 117.246C130.643 117.246 129.991 117.076 129.422 116.731 128.852 116.392 128.408 115.915 128.085 115.313 127.762 114.71 127.603 114.02 127.603 113.243 127.603 112.465 127.762 111.829 128.08 111.249 128.397 110.668 128.836 110.208 129.389 109.869 129.942 109.529 130.577 109.365 131.284 109.365 131.99 109.365 132.631 109.518 133.184 109.83 133.737 110.143 134.165 110.575 134.471 111.134 134.778 111.693 134.926 112.333 134.915 113.056 134.915 113.177 134.915 113.303 134.899 113.434 134.888 113.56 134.871 113.703 134.855 113.856L129.181 113.856C129.213 114.267 129.328 114.623 129.526 114.935 129.723 115.247 129.98 115.488 130.292 115.663 130.605 115.839 130.961 115.926 131.36 115.926 131.87 115.926 132.319 115.828 132.697 115.625 133.075 115.428 133.343 115.159 133.496 114.82L134.756 115.264C134.449 115.888 134 116.375 133.414 116.72 132.828 117.065 132.149 117.241 131.382 117.241ZM133.338 112.618C133.338 112.251 133.245 111.917 133.064 111.621 132.878 111.326 132.631 111.09 132.319 110.926 132.007 110.761 131.656 110.674 131.267 110.674 130.922 110.674 130.599 110.756 130.309 110.926 130.019 111.096 129.772 111.326 129.575 111.616 129.378 111.906 129.252 112.24 129.197 112.618L133.338 112.618Z" fill="#878786" fill-rule="nonzero" fill-opacity="1" transform="matrix(1 0 0 1.00085 83.022 55)"/><path d="M136.679 109.474 137.999 109.474 138.092 110.362C138.338 110.044 138.65 109.797 139.028 109.628 139.406 109.452 139.828 109.365 140.288 109.365 140.879 109.365 141.394 109.491 141.827 109.743 142.26 109.995 142.599 110.362 142.84 110.855 143.081 111.347 143.202 111.961 143.202 112.695L143.202 117.142 141.761 117.142 141.761 112.881C141.761 112.164 141.608 111.621 141.307 111.249 141.005 110.876 140.567 110.69 139.998 110.69 139.428 110.69 138.946 110.882 138.617 111.265 138.289 111.649 138.125 112.213 138.125 112.958L138.125 117.142 136.684 117.142 136.684 109.474Z" fill="#878786" fill-rule="nonzero" fill-opacity="1" transform="matrix(1 0 0 1.00085 83.022 55)"/><path d="M149.686 106.407 156.861 106.407 156.861 107.694 151.22 107.694 151.22 111.052 155.454 111.052 155.454 112.339 151.22 112.339 151.22 117.137 149.686 117.137 149.686 106.402Z" fill="#878786" fill-rule="nonzero" fill-opacity="1" transform="matrix(1 0 0 1.00085 83.022 55)"/><path d="M161.999 117.142 161.878 116.025C161.643 116.414 161.342 116.715 160.964 116.923 160.586 117.131 160.109 117.235 159.512 117.235 158.959 117.235 158.488 117.148 158.099 116.967 157.71 116.786 157.409 116.54 157.201 116.217 156.993 115.893 156.889 115.521 156.889 115.088 156.889 114.442 157.13 113.911 157.612 113.483 158.094 113.062 158.789 112.799 159.698 112.695L161.878 112.448 161.878 111.851C161.878 111.523 161.747 111.243 161.478 111.013 161.21 110.783 160.827 110.668 160.328 110.668 159.857 110.668 159.457 110.778 159.134 110.997 158.806 111.216 158.587 111.539 158.477 111.972L157.19 111.512C157.382 110.838 157.765 110.312 158.335 109.934 158.904 109.556 159.589 109.365 160.399 109.365 161.358 109.365 162.092 109.606 162.59 110.088 163.089 110.57 163.341 111.2 163.341 111.988L163.341 117.142 162.004 117.142ZM161.878 113.626 159.775 113.889C159.326 113.949 158.986 114.075 158.762 114.267 158.537 114.458 158.422 114.705 158.422 115.012 158.422 115.296 158.532 115.537 158.751 115.724 158.97 115.915 159.282 116.008 159.677 116.008 160.169 116.008 160.575 115.915 160.903 115.735 161.232 115.548 161.473 115.291 161.632 114.962 161.791 114.628 161.867 114.245 161.867 113.807L161.867 113.637Z" fill="#878786" fill-rule="nonzero" fill-opacity="1" transform="matrix(1 0 0 1.00085 83.022 55)"/><path d="M165.405 106.101 166.862 106.101 166.862 112.678 167.492 112.678 170.362 109.474 172.323 109.474 168.763 113.308 172.334 117.142 170.357 117.142 167.487 113.922 166.857 113.922 166.857 117.142 165.4 117.142 165.4 106.101Z" fill="#878786" fill-rule="nonzero" fill-opacity="1" transform="matrix(1 0 0 1.00085 83.022 55)"/><path d="M180.067 117.142 178.747 117.142 178.638 116.238C178.391 116.567 178.085 116.814 177.712 116.989 177.34 117.164 176.924 117.252 176.464 117.252 175.872 117.252 175.352 117.126 174.914 116.874 174.475 116.622 174.136 116.255 173.895 115.767 173.654 115.28 173.533 114.677 173.533 113.949L173.533 109.469 174.99 109.469 174.99 113.763C174.99 114.469 175.138 115.006 175.428 115.373 175.719 115.74 176.162 115.926 176.754 115.926 177.345 115.926 177.794 115.735 178.129 115.357 178.463 114.979 178.627 114.415 178.627 113.67L178.627 109.469 180.067 109.469 180.067 117.137Z" fill="#878786" fill-rule="nonzero" fill-opacity="1" transform="matrix(1 0 0 1.00085 83.022 55)"/><path d="M182.258 106.101 183.699 106.101 183.699 117.142 182.258 117.142 182.258 106.101Z" fill="#878786" fill-rule="nonzero" fill-opacity="1" transform="matrix(1 0 0 1.00085 83.022 55)"/><path d="M186.382 109.474 186.382 107.327 187.839 107.327 187.839 109.474 189.756 109.474 189.756 110.761 187.839 110.761 187.839 114.535C187.839 115.006 187.932 115.34 188.124 115.532 188.316 115.724 188.551 115.839 188.847 115.861 189.137 115.888 189.444 115.877 189.762 115.839L189.762 117.082C189.34 117.175 188.929 117.202 188.529 117.164 188.124 117.131 187.763 117.011 187.439 116.819 187.116 116.627 186.864 116.342 186.673 115.97 186.481 115.598 186.388 115.121 186.388 114.535L186.388 110.761 185.282 110.761 185.282 109.474 186.388 109.474Z" fill="#878786" fill-rule="nonzero" fill-opacity="1" transform="matrix(1 0 0 1.00085 83.022 55)"/><path d="M196.044 117.142 195.923 116.025C195.688 116.414 195.387 116.715 195.009 116.923 194.631 117.131 194.154 117.235 193.557 117.235 193.004 117.235 192.533 117.148 192.144 116.967 191.755 116.786 191.454 116.54 191.246 116.217 191.038 115.893 190.934 115.521 190.934 115.088 190.934 114.442 191.175 113.911 191.657 113.483 192.139 113.062 192.834 112.799 193.743 112.695L195.923 112.448 195.923 111.851C195.923 111.523 195.792 111.243 195.524 111.013 195.255 110.783 194.872 110.668 194.373 110.668 193.902 110.668 193.503 110.778 193.179 110.997 192.851 111.216 192.632 111.539 192.522 111.972L191.235 111.512C191.427 110.838 191.81 110.312 192.38 109.934 192.949 109.556 193.634 109.365 194.445 109.365 195.403 109.365 196.137 109.606 196.635 110.088 197.134 110.57 197.386 111.2 197.386 111.988L197.386 117.142 196.049 117.142ZM193.24 108.352C193.015 108.352 192.829 108.28 192.686 108.138 192.544 107.996 192.473 107.815 192.473 107.601 192.473 107.388 192.544 107.207 192.686 107.059 192.829 106.911 193.015 106.834 193.24 106.834 193.442 106.834 193.623 106.911 193.771 107.059 193.919 107.207 193.995 107.388 193.995 107.601 193.995 107.815 193.919 107.996 193.771 108.138 193.623 108.28 193.448 108.352 193.24 108.352ZM195.923 113.626 193.82 113.889C193.371 113.949 193.031 114.075 192.807 114.267 192.582 114.458 192.467 114.705 192.467 115.012 192.467 115.296 192.577 115.537 192.796 115.724 193.015 115.915 193.327 116.008 193.722 116.008 194.215 116.008 194.62 115.915 194.948 115.735 195.277 115.548 195.518 115.291 195.677 114.962 195.836 114.628 195.912 114.245 195.912 113.807L195.912 113.637ZM195.507 108.352C195.304 108.352 195.124 108.28 194.976 108.138 194.828 107.996 194.751 107.815 194.751 107.601 194.751 107.388 194.822 107.207 194.976 107.059 195.124 106.911 195.299 106.834 195.507 106.834 195.715 106.834 195.89 106.911 196.044 107.059 196.197 107.207 196.274 107.388 196.274 107.601 196.274 107.815 196.197 107.996 196.044 108.138 195.89 108.28 195.71 108.352 195.507 108.352Z" fill="#878786" fill-rule="nonzero" fill-opacity="1" transform="matrix(1 0 0 1.00085 83.022 55)"/><path d="M199.938 109.474 199.938 107.327 201.395 107.327 201.395 109.474 203.312 109.474 203.312 110.761 201.395 110.761 201.395 114.535C201.395 115.006 201.488 115.34 201.68 115.532 201.871 115.724 202.107 115.839 202.403 115.861 202.693 115.888 203 115.877 203.317 115.839L203.317 117.082C202.896 117.175 202.485 117.202 202.085 117.164 201.68 117.131 201.318 117.011 200.995 116.819 200.672 116.627 200.42 116.342 200.228 115.97 200.037 115.598 199.943 115.121 199.943 114.535L199.943 110.761 198.837 110.761 198.837 109.474 199.943 109.474Z" fill="#878786" fill-rule="nonzero" fill-opacity="1" transform="matrix(1 0 0 1.00085 83.022 55)"/><path d="M83.3107 11.6715C66.0472 11.6715 52.0041 25.7145 52.0041 42.978 52.0041 60.2416 66.0472 74.2846 83.3107 74.2846 86.2847 74.2846 89.1547 73.8574 91.8822 73.0851L91.8822 65.0065C89.2259 66.0472 86.334 66.6223 83.3107 66.6223 70.2754 66.6223 59.6719 56.0188 59.6719 42.9835 59.6719 29.9483 70.2754 19.3448 83.3107 19.3448 86.334 19.3448 89.2204 19.9199 91.8822 20.9605L91.8822 12.8819C89.1547 12.1042 86.2847 11.6824 83.3107 11.6824Z" fill="#005176" fill-rule="nonzero" fill-opacity="1" transform="matrix(1 0 0 1.00085 83.022 55)"/><path d="M42.9507 11.6715C25.6871 11.6715 11.6441 25.7145 11.6441 42.978 11.6441 60.2416 25.6871 74.2846 42.9507 74.2846 45.9247 74.2846 48.7946 73.8574 51.5222 73.0851L51.5222 65.0065C48.8658 66.0472 45.974 66.6223 42.9507 66.6223 29.9154 66.6223 19.3119 56.0188 19.3119 42.9835 19.3119 29.9483 29.9154 19.3448 42.9507 19.3448 45.974 19.3448 48.8603 19.9199 51.5222 20.9605L51.5222 12.8819C48.7946 12.1042 45.9247 11.6824 42.9507 11.6824Z" fill="#005176" fill-rule="nonzero" fill-opacity="1" transform="matrix(1 0 0 1.00085 83.022 55)"/><path d="M81.799 50.1036C86.0875 50.1036 89.56 46.6257 89.56 42.3427 89.56 38.0597 86.0821 34.5818 81.799 34.5818 77.516 34.5818 74.0381 38.0597 74.0381 42.3427 74.0381 46.6257 77.516 50.1036 81.799 50.1036" fill="#E30A0F" fill-rule="nonzero" fill-opacity="1" transform="matrix(1 0 0 1.00085 83.022 55)"/><path d="M142.632 19.3119 142.632 11.6441 102.135 11.6441 102.135 74.4872 109.803 74.4872 109.803 44.6266 135.019 44.6266 135.019 36.9588 109.803 36.9588 109.803 19.3119 142.632 19.3119Z" fill="#005176" fill-rule="nonzero" fill-opacity="1" transform="matrix(1 0 0 1.00085 83.022 55)"/></g></g></g></g></g></svg>